<?xml version="1.0" encoding="utf-8"?>
<!-- Generator: Adobe Illustrator 23.0.6, SVG Export Plug-In . SVG Version: 6.00 Build 0)  -->
<svg version="1.1" id="Layer_1" xmlns="http://www.w3.org/2000/svg" xmlns:xlink="http://www.w3.org/1999/xlink" x="0px" y="0px"
	 viewBox="0 0 45 43" style="enable-background:new 0 0 45 43;" xml:space="preserve">
<style type="text/css">
	.st0{fill-rule:evenodd;clip-rule:evenodd;fill:#F58220;}
</style>
<g>
	<path class="st0" d="M25.2,0.7c2.1-0.2,4,1.5,4.2,3.8c0.2,2.3-1.4,4.3-3.6,4.5c-2.1,0.2-4-1.5-4.2-3.8C21.4,2.9,23,0.9,25.2,0.7z"
		/>
	<path class="st0" d="M15.7,18.5c2.3-2.2,3.9-3.7,6.4-5.9c1-0.9,2.1-1.9,2.9-2.2c0.1,0,0.2-0.1,0.2-0.1c0.8-0.2,1.5,0.3,1.7,1.1
		l1.2,7.4c0.2,1.4,0.5,1.7,1.4,2.4l0,0c-1.2-0.5-1.8-0.7-2.4-2l-0.7-1.7c-5.4,31.7-8.2,33.7-5.4,2.3c-0.8,0.5-1.9,0.8-3,0.8
		C16.2,20.6,15.1,19.6,15.7,18.5z"/>
</g>
</svg>
