<?xml version="1.0" encoding="utf-8"?>
<!-- Generator: Adobe Illustrator 23.0.1, SVG Export Plug-In . SVG Version: 6.00 Build 0)  -->
<svg version="1.1" id="Layer_1" xmlns="http://www.w3.org/2000/svg" xmlns:xlink="http://www.w3.org/1999/xlink" x="0px" y="0px"
	 viewBox="0 0 80.4 27.1" style="enable-background:new 0 0 80.4 27.1;" xml:space="preserve">
<style type="text/css">
	.st0{fill:#EEEFF0;}
	.st1{fill:#C9C9C9;}
	.st2{fill:#1A5785;}
	.st3{fill:#2CBCE4;}
</style>
<g>
	<path class="st0" d="M7.3,10.4L7,10.2c0,0,0.2-0.3,0.5-0.4c0.1-0.1,5.7-3,5.7-3c0.2-0.1,0.7-0.1,0.9,0l5.8,3c0.2,0.1,0.2,0.3,0,0.5
		c0,0-5.3,2.7-5.5,2.8c-0.5,0.2-0.6,0.5-0.6,0.5l-0.6-0.3L7.3,10.4z"/>
	<path class="st1" d="M7,10.2c0,0-0.2,0.3-0.2,0.6v5.7c0,0.3,0.2,0.6,0.5,0.7l5.7,2.9c0.2,0.1,0.6,0.1,0.6,0.1v-6
		c0-0.4,0.2-0.7,0.2-0.7L7,10.2z"/>
	<path class="st2" d="M5.5,9.5c0,0-0.2,0.2-0.2,0.6c0,0.3,0,7,0,7c0,0.4,0.3,0.8,0.6,1l7,3.6c0.3,0.2,0.9,0.2,1.2,0l9.5-4.9
		c0.3-0.2,0.9-0.2,1.3,0l3.9,2c0.3,0.2,0.3,0.5,0,0.7L14.2,27c-0.4,0.2-0.8,0.2-1.2,0L0.7,20.5c-0.3-0.2-0.6-0.5-0.6-0.9
		c0,0,0-12,0-12.1c0-0.5,0.2-0.7,0.2-0.7L5.5,9.5z"/>
	<path class="st3" d="M0.3,6.9c0,0,0.1-0.2,0.5-0.4C1.1,6.3,13,0.3,13,0.3c0.4-0.2,0.9-0.2,1.2,0l12.1,6.2c0.4,0.2,0.6,0.5,0.6,1V13
		c0,0.3-0.2,0.8-0.6,1l-12.1,6.2c-0.2,0.1-0.6,0.1-0.6,0.1v-5.1l7.5-3.9c0.5-0.2,0.6-0.6,0.6-1V10c0-0.5-0.3-0.8-0.6-1l-7-3.6
		c-0.3-0.2-0.7-0.2-1.1,0C13,5.5,8,8.1,6,9C5.6,9.3,5.5,9.5,5.5,9.5L0.3,6.9z"/>
</g>
<g>
	<path class="st2" d="M36.1,11.8L36.1,11.8c0-0.9,0-1.4-0.1-1.6c0-0.2-0.1-0.4-0.2-0.5c-0.1-0.1-0.3-0.2-0.5-0.2
		c-0.5,0-0.8,0.2-0.9,0.6c-0.1,0.4-0.2,1-0.2,1.7v1.5h2L36.1,11.8L36.1,11.8z M32.4,12.1c0-1.6,0.3-2.6,0.8-3.3
		c0.4-0.5,1.1-0.7,1.9-0.7c1.2,0,2,0.5,2.3,1.6c0.2,0.6,0.3,1.4,0.3,2.4v2.3H34V17c0,1.1,0.1,1.7,0.3,2s0.4,0.4,0.8,0.4
		c0.4,0,0.6-0.2,0.7-0.5c0.1-0.3,0.2-0.6,0.2-1s0-0.7,0-0.9v-1h1.7v0.5c0,1.3-0.1,2.2-0.3,2.8c-0.2,0.5-0.5,0.9-0.8,1.1
		c-0.4,0.2-0.8,0.4-1.4,0.4c-0.6,0-1-0.1-1.3-0.2s-0.6-0.3-0.8-0.6c-0.2-0.2-0.4-0.6-0.5-1.1s-0.2-1.3-0.2-2.4V12.1z"/>
	<path class="st2" d="M41.5,12.3c0-1.1,0.1-1.9,0.2-2.4C41.9,9.4,42,9,42.2,8.8c0.4-0.5,1.1-0.8,2-0.8s1.5,0.2,1.9,0.6
		c0.4,0.4,0.6,1.1,0.7,1.9c0,0.4,0.1,0.8,0.1,1.3v0.9h-1.7v-1.1c0-0.8,0-1.3-0.1-1.5c-0.2-0.4-0.5-0.6-0.8-0.7c-0.5,0-0.9,0.3-1,0.8
		c-0.1,0.3-0.1,0.8-0.1,1.4V17c0,0.8,0.1,1.4,0.2,1.8c0.1,0.3,0.4,0.5,0.7,0.5c0.4,0,0.6-0.1,0.8-0.4c0.2-0.2,0.3-0.9,0.3-1.9v-1.2
		h1.7v0.8c0,1.7-0.2,2.8-0.7,3.3c-0.4,0.5-1.1,0.8-2,0.8c-1.4,0-2.3-0.8-2.5-2.3c-0.1-0.6-0.1-1.2-0.1-2v-4.1H41.5z"/>
	<path class="st2" d="M54.5,8.2h1.7v12.4h-1.7v-1.3c-0.1,0.4-0.4,0.8-0.7,1c-0.3,0.3-0.8,0.4-1.3,0.4s-1-0.2-1.4-0.7
		c-0.4-0.4-0.6-1.1-0.6-2.1V8.2h1.7v9.6c0,1,0.4,1.5,1.1,1.5c0.4,0,0.7-0.1,0.9-0.4s0.3-0.6,0.3-1.1V8.2z"/>
	<path class="st2" d="M64.1,11.8L64.1,11.8c0-0.8,0-1.3-0.1-1.5s-0.2-0.4-0.3-0.5s-0.3-0.2-0.5-0.2s-0.4,0-0.6,0.1
		c-0.4,0.1-0.6,0.8-0.6,2.1v5c0,0.9,0.1,1.5,0.2,1.9c0.2,0.4,0.4,0.6,0.9,0.6c0.4,0,0.7-0.2,0.8-0.6s0.2-1,0.2-2V11.8z M60.3,5.9H62
		v3.3c0.1-0.3,0.3-0.6,0.6-0.8s0.6-0.3,1-0.3c1,0,1.7,0.5,2,1.5c0.2,0.6,0.3,1.5,0.3,2.4v4.8c0,1.5-0.2,2.6-0.6,3.2
		c-0.3,0.5-0.8,0.7-1.5,0.7c-0.8,0-1.4-0.4-1.7-1.1v1h-1.7V5.9H60.3z"/>
	<path class="st2" d="M69.7,8.2L69.7,8.2h1.7v12.4h-1.7V8.2z M69.7,5.6h1.7v1.5h-1.7V5.6z"/>
	<polygon class="st2" points="74.7,8.2 76.2,8.2 77.5,12.2 78.6,8.2 80.1,8.2 78.1,14.3 80.2,20.6 78.7,20.6 77.3,16.4 76.1,20.6 
		74.5,20.6 76.6,14.2 	"/>
</g>
</svg>
