<svg width="380" height="126" viewBox="0 0 380 126" fill="none" xmlns="http://www.w3.org/2000/svg">
<path fill-rule="evenodd" clip-rule="evenodd" d="M0.792969 31.305C0.792969 31.305 1.2509 30.514 3.10343 29.4525C4.35233 28.8488 60.0116 0.665327 60.0116 0.665327C62.0515 -0.312977 64.1122 -0.125643 65.7566 0.665327L122.394 29.4525C124.247 30.514 125.308 31.7005 125.308 33.9485V59.6134C125.308 61.2786 124.517 63.3185 122.394 64.1719L65.9647 93.0839C64.695 93.75 63.8416 94.083 63.238 94.1455V70.1874L98.3737 52.2241C100.684 51.2458 101.267 49.5806 101.267 47.7488V46.2918C101.267 43.8356 100.018 42.7949 98.3737 41.7958L65.3611 25.1646C63.7167 24.3112 61.8642 24.3112 60.2198 25.1646C60.2198 25.1646 36.7821 36.8418 27.5402 41.6084C25.4796 42.5867 25.0841 43.4401 25.0841 43.4401L0.792969 31.305Z" fill="white"/>
<path fill-rule="evenodd" clip-rule="evenodd" d="M33.678 47.7491L32.4707 47.083C32.5956 46.7916 33.2825 45.8966 34.5314 45.2929C35.1142 44.835 61.0081 31.3053 61.0081 31.3053C62.257 30.7016 64.1095 30.7016 65.0878 31.3053L92.626 45.2929C93.8749 45.8966 93.8749 46.8749 92.626 47.541C92.626 47.541 67.7937 60.2797 66.753 60.6752C64.9629 61.4662 64.0887 62.5902 63.9013 62.9232L33.678 47.7491Z" fill="white"/>
<path fill-rule="evenodd" clip-rule="evenodd" d="M32.4706 47.084C32.0335 47.7292 31.6172 49.0614 31.6172 50.3311V76.4539C31.6172 77.7028 32.6788 79.1599 33.6779 79.7635L60.217 93.5639C61.4034 94.1467 63.1103 94.1467 63.2352 94.1467V66.0256C63.2352 64.1315 63.6931 63.278 63.9012 62.9242L32.4706 47.084Z" fill="white"/>
<path fill-rule="evenodd" clip-rule="evenodd" d="M25.0821 43.4408C25.0821 43.4408 24.2287 44.6273 24.2287 46.4798C24.2287 47.9368 24.2287 78.972 24.2287 78.972C24.2287 80.6164 25.4776 82.6563 27.1428 83.4472L60.0096 100.099C61.654 100.953 64.2975 100.953 65.7546 100.099L110.111 77.3068C111.777 76.4534 114.42 76.4534 115.856 77.3068L134.153 86.5487C135.61 87.3604 135.339 89.0048 134.153 89.6709L65.9419 124.515C64.1102 125.369 62.2577 125.764 60.2178 124.515L2.9141 94.9371C1.2489 94.1461 0 92.5017 0 90.8574C0 90.8574 0 34.9899 0 34.4071C0 32.3672 0.79097 31.3057 0.79097 31.3057L25.0821 43.4408Z" fill="white"/>
<path fill-rule="evenodd" clip-rule="evenodd" d="M173.367 47.3323C173.367 43.1901 173.158 40.7339 172.971 39.943C172.763 39.0895 172.305 38.2986 171.722 37.6325C171.306 37.0497 170.452 36.6542 169.266 36.6542C167.018 36.6542 165.582 37.6325 164.916 39.485C164.312 41.3376 164.125 44.0435 164.125 47.5404V54.5343H173.554L173.367 47.3323ZM155.674 48.7269C155.674 41.3376 157.131 36.446 159.837 33.5527C161.877 31.3047 164.916 30.2432 168.871 30.2432C174.615 30.2432 178.321 32.7618 179.694 37.8406C180.569 40.7339 180.964 44.439 180.964 49.393V60.2792H163.729V71.7691C163.729 76.6606 164.125 79.9494 164.916 81.2191C165.769 82.468 167.018 83.0508 168.6 83.0508C170.265 83.0508 171.514 82.468 172.118 81.0109C172.763 79.5539 172.971 77.9095 172.971 76.2651C172.971 74.5999 172.971 73.2261 172.971 71.9772V67.2106H180.756V69.7292C180.756 75.8696 180.36 80.1575 179.507 82.6553C178.716 85.1115 177.259 86.9432 175.615 88.0048C173.949 89.0039 171.722 89.5867 169.079 89.5867C166.373 89.5867 164.312 89.1912 162.855 88.6084C161.211 88.0048 160.024 87.1514 159.171 85.9025C158.38 84.9033 157.526 83.0508 156.735 80.8236C156.132 78.4923 155.674 74.5999 155.674 69.2505V48.7269Z" fill="white"/>
<path fill-rule="evenodd" clip-rule="evenodd" d="M198.452 49.7883C198.577 45.1049 198.66 37.2368 202.157 33.5526C204.197 31.3046 207.236 30.0557 211.399 30.0557C215.479 30.0557 218.331 31.0964 219.975 33.1571C221.619 35.197 222.889 38.0903 223.285 42.1908C223.472 43.8352 223.472 45.8959 223.472 48.1439V52.2236H215.687V47.0823C215.687 43.6479 215.479 41.1292 215.292 40.1509C214.959 38.236 213.168 37.1119 211.586 37.0495C209.089 37.0495 207.423 38.2984 206.841 40.7338C206.445 42.399 206.237 44.4388 206.237 47.3321V71.9771C206.237 75.8695 206.445 78.7628 207.028 80.1574C207.694 81.8017 208.881 82.6552 210.525 82.6552C212.19 82.6552 213.647 82.0099 214.23 81.0108C215.083 79.9492 215.479 76.9102 215.479 72.1644V66.6276H223.285V70.3119C223.285 78.0967 222.223 83.4461 220.183 85.6941C218.122 88.2128 214.834 89.3992 210.733 89.3992C203.989 89.3992 200.034 85.9023 198.848 78.513C198.452 75.8695 198.182 72.768 198.182 69.063L198.452 49.7883Z" fill="white"/>
<path fill-rule="evenodd" clip-rule="evenodd" d="M259.188 30.9092H267.243V88.4002H259.188V82.4679C258.584 84.5078 257.606 85.9024 256.149 87.1513C254.692 88.4002 252.652 89.0038 250.216 89.0038C247.698 89.0038 245.45 88.0047 243.597 85.9024C241.766 83.8417 240.975 80.6154 240.975 76.2651V30.9092H248.759V75.6614C248.759 80.1575 250.404 82.4679 253.651 82.4679C255.483 82.4679 256.94 81.8018 257.793 80.6154C258.792 79.3665 259.188 77.514 259.188 75.4741V30.9092Z" fill="white"/>
<path fill-rule="evenodd" clip-rule="evenodd" d="M304.42 47.5412C304.42 43.6488 304.087 41.4008 303.817 40.3392C303.296 38.5699 302.443 36.7798 300.112 36.8423C298.863 36.8423 298.009 37.0504 297.406 37.2378C295.366 38.0287 294.304 41.5257 294.304 47.7285V71.1038C294.304 75.2668 294.783 78.3058 295.366 80.1583C295.97 82.0108 297.406 82.8642 299.466 82.8642C301.506 82.8642 302.755 82.0108 303.359 80.1583C304.025 78.3058 304.42 75.2668 304.42 70.9164V47.5412ZM286.52 20.3984H294.304V35.7807C294.783 34.4069 295.574 33.158 297.01 32.0965C298.467 31.0973 299.862 30.7019 301.506 30.7019C306.252 30.7019 309.374 32.9499 310.748 37.6333C311.602 40.7347 312.205 44.4398 312.205 48.9358V71.1038C312.205 78.3058 311.206 83.2597 309.374 86.153C307.709 88.401 305.399 89.5875 302.36 89.5875C298.675 89.5875 295.97 87.7558 294.575 84.3213V89.192H286.52V20.3984Z" fill="white"/>
<path fill-rule="evenodd" clip-rule="evenodd" d="M330.686 30.9107H338.47V88.4017H330.686V30.9107ZM330.686 18.5674H338.679V25.7486H330.686V18.5674Z" fill="white"/>
<path fill-rule="evenodd" clip-rule="evenodd" d="M353.919 30.9092H360.85L367.074 49.3929L372.402 30.9092H379.604L370.363 59.2176L380 88.4002H372.611L366.2 68.8549L360.455 88.4002H353.273L362.973 58.8221L353.919 30.9092Z" fill="white"/>
</svg>
