<?xml version="1.0" encoding="utf-8"?>
<!-- Generator: Adobe Illustrator 23.0.6, SVG Export Plug-In . SVG Version: 6.00 Build 0)  -->
<svg version="1.1" id="Layer_1" xmlns="http://www.w3.org/2000/svg" xmlns:xlink="http://www.w3.org/1999/xlink" x="0px" y="0px"
	 viewBox="0 0 120.3 46.6" style="enable-background:new 0 0 120.3 46.6;" xml:space="preserve">
<style type="text/css">
	.st0{fill-rule:evenodd;clip-rule:evenodd;fill:#0066B3;}
	.st1{fill-rule:evenodd;clip-rule:evenodd;fill:#F58220;}
</style>
<g>
	<path class="st0" d="M37.4,36.5c0.1-0.3-0.5-0.9-0.8-0.9c-0.1,0-0.1,0-0.2,0.1c-1.3,2.1-2.6,4.1-4,6.3c-0.3,0.4-0.6,0.7-1.3,0.9
		c-4,1.4-12,1.7-15.4,1.7c-0.4,0-0.8-0.1-0.8-0.9c0-1.7,0.2-14.1,0.3-16.7c0.1-0.7,0.2-0.9,0.8-1c4-0.4,12.8-1,15.4-1.2
		c0.3,0,0.5-0.9,0.5-1.2c0-0.1,0-0.2-0.1-0.2c-1.5,0-9.9-0.1-16.4-0.3c-0.1-2.8,0.4-13.8,0.6-17.4c0-0.5,0.1-0.8,0.8-0.8
		c1,0,7.6,0.5,12.3,1.4C30,6.5,30.7,6.8,31,7.5c1.1,2.3,2.2,4.7,3.2,7c0.1,0.1,0.1,0.1,0.2,0.1c0.2,0,0.9-0.4,0.9-0.6L34.6,3.7
		c0-0.2-0.3-0.3-0.4-0.3c-1,0-6.2,0.3-24,0.3c-1.3,0-2.7,0-4.3,0C4.2,3.6,2.4,3.6,0.3,3.5c-0.1,0-0.1,0.1-0.1,0.1
		c0,0.6,0.2,1.1,0.3,1.1l3.4,0.6c0.3,0.1,0.6,0.3,0.6,1.2c0,2.1,0.2,15.4,0.2,18.2c0,3.5,0.1,16.3,0.1,18.5c0,0.8-0.2,1-0.6,1.1
		l-3.9,0.8C0.2,45.1,0,45.8,0,46c0,0.1,0,0.1,0.1,0.1C2.5,46.1,6.5,46,9.2,46c9.4,0,15.5,0.1,19.4,0.2c4,0.1,5.7,0.2,6.4,0.2
		c0.3,0,0.4-0.1,0.5-0.3L37.4,36.5L37.4,36.5z"/>
	<path class="st0" d="M54.6,33.3c0-0.6,0.1-1.6,0.1-2.5c0.3-4.9,0.8-14.4,0.8-15.9c0-0.6-0.2-0.8-0.6-0.8L40,15.9
		c-0.2,0-0.2,0.1-0.2,0.3c0,0.3,0.1,0.8,0.4,0.8l3.4,0.3c0.7,0.1,0.8,0.6,0.9,1.3c0.1,1.5,0.2,8.7,0.3,11.4c0.1,2.8,0.3,11,0.3,13.4
		c0,0.8-0.1,1-0.6,1.1l-4.3,0.6c-0.2,0-0.3,0.6-0.3,0.9c0,0.1,0,0.1,0.1,0.1c1-0.1,5-0.1,9.5-0.1c5.5,0,9.7,0.1,12.2,0.1
		c0.1,0,0.1-0.1,0.1-0.1c0-0.3-0.2-0.9-0.4-0.9l-6.2-0.7c-0.4-0.1-0.6-0.1-0.6-0.9c0-1.5,0.4-5.3,0.8-7c2.5-11.6,6.2-16.9,10.1-16.9
		c0.8,0,1.7,0.6,2.2,1.3c0.8,1.3,2.1,3.4,3.1,5.2c0.1,0.1,0.1,0.1,0.2,0.1c0.1,0,0.8-0.3,0.8-0.6l-0.5-10.3c0-0.1-0.1-0.3-0.3-0.5
		c-0.6-0.3-1.3-0.7-2.4-0.7c-7.3,0-11.2,8.9-13.2,17.1c-0.1,0.6-0.3,1-0.5,2.1H54.6L54.6,33.3z"/>
	<path class="st0" d="M90.2,25.7c0,4.8,3.1,7,11.5,8.6c6.4,1.2,8.7,2.1,8.7,5.4c0,3.2-3.7,5.4-9,5.4c-2.5,0-5.2-0.9-6.1-1.4
		c-0.5-0.4-0.9-0.7-1.2-1.2c-1-1.9-2.1-4-3-5.9c-0.1-0.1-0.2-0.1-0.3-0.1c-0.3,0-1,0.3-0.9,0.6l0.6,7.9c0,0.4,0.1,0.6,0.4,0.7
		c1.4,0.8,5.7,1.2,7.5,1.2c13.5,0,21.8-4.8,21.8-12c0-4.6-3.9-6.4-12.1-8.2c-6.1-1.3-8.2-2.7-8.2-5.2c0-3.2,3.4-5.4,7.3-5.4
		c2.9,0,5,0.6,6.2,1.3c0.6,0.3,1,0.7,1.3,1.4c1,1.9,2,3.8,3,5.7c0.1,0.1,0.2,0.1,0.3,0.1c0.3,0,0.9-0.3,0.9-0.5l-0.6-7.9
		c0-0.3-0.1-0.5-0.4-0.7c-1-0.6-3.7-1.2-7.4-1.2C98.9,14.2,90.2,19.7,90.2,25.7L90.2,25.7z"/>
	<path class="st1" d="M84.5,0c2.4-0.2,4.4,1.7,4.6,4.3c0.2,2.6-1.6,4.8-3.9,5c-2.4,0.2-4.4-1.7-4.6-4.3C80.4,2.4,82.2,0.2,84.5,0z"
		/>
	<path class="st1" d="M74,19.8c2.6-2.5,4.4-4.2,7.1-6.5c1.1-1,2.3-2.1,3.3-2.5c0.1,0,0.2-0.1,0.3-0.1c0.9-0.2,1.7,0.4,1.9,1.2
		l1.3,8.2c0.2,1.5,0.5,1.8,1.6,2.6l0,0c-1.3-0.5-2-0.7-2.7-2.2l-0.8-1.9c-6,35.1-9.1,37.4-6,2.6c-0.9,0.6-2.2,0.9-3.4,0.9
		C74.5,22,73.4,21,74,19.8z"/>
</g>
</svg>
